<?xml version="1.0" encoding="utf-8"?>
<!-- Generator: Adobe Illustrator 19.0.0, SVG Export Plug-In . SVG Version: 6.00 Build 0)  -->
<svg xmlns="http://www.w3.org/2000/svg" xmlns:xlink="http://www.w3.org/1999/xlink" version="1.1" id="Layer_1" x="0px" y="0px" viewBox="0 2 98 98" style="enable-background:new 0 2 98 98;" xml:space="preserve" width="512" height="512">
<style type="text/css">
	.st0{fill:url(#SVGID_1_);}
</style>
<linearGradient id="SVGID_1_" gradientUnits="userSpaceOnUse" x1="49" y1="12.2002" x2="49" y2="89.7998">
	<stop offset="0" style="stop-color:#00EFD1"/>
	<stop offset="1" style="stop-color:#00ACEA"/>
</linearGradient>
<path class="st0" d="M49,21.9c-9.7,0-17.7,4.2-23.3,9.4l0.3-16c0-1.7-1.3-3-2.9-3c0,0,0,0-0.1,0c-1.6,0-3,1.3-3,3l-0.4,24  c0,0.8,0.3,1.6,0.9,2.2c0.6,0.6,1.3,0.9,2.2,0.9l23.4-0.4c1.7,0,3-1.4,2.9-3.1c0-1.6-1.4-2.9-3-2.9c0,0,0,0-0.1,0l-16.5,0.3  c4.6-4.4,11.4-8.2,19.6-8.2c16.7,0,27.9,14.4,27.9,27.9c0,16.7-14.4,28-27.9,28c-11.7,0-27.9-9.7-27.9-28c0-1.7-1.3-3-3-3  s-3,1.3-3,3c0,7.9,3.4,16.5,9.1,22.8c6.5,7.2,15.3,11.2,24.8,11.2c20.3,0,33.9-17.6,33.9-34C82.9,39.4,69.3,21.9,49,21.9z"/>
</svg>
