<svg height="512pt" viewBox="0 -28 512.0008 512" width="512pt" xmlns="http://www.w3.org/2000/svg" xmlns:xlink="http://www.w3.org/1999/xlink"><linearGradient id="a" gradientUnits="userSpaceOnUse" x1=".000152" x2="512.0001539178" y1="228.3713789589" y2="228.3713789589"><stop offset="0" stop-color="#87f1fc"/><stop offset=".2557" stop-color="#7fd4fb"/><stop offset=".5295" stop-color="#78bcfb"/><stop offset=".7844" stop-color="#74aefa"/><stop offset="1" stop-color="#73a9fa"/></linearGradient><path d="m467.445312 317.625c6.550782-2.949219 12.589844-7.082031 17.828126-12.316406l9.148437-9.152344c11.410156-11.410156 17.652344-26.578125 17.578125-42.714844-.074219-16.132812-6.457031-31.242187-17.933594-42.507812l-65.03125-64.152344c-7.863281-7.761719-20.527344-7.675781-28.285156.1875-7.757812 7.867188-7.671875 20.53125.191406 28.289062l65.066406 64.191407c3.835938 3.765625 5.960938 8.800781 5.988282 14.179687.023437 5.378906-2.058594 10.4375-5.859375 14.238282l-9.152344 9.152343c-3.804687 3.808594-8.832031 5.894531-14.25 5.859375-5.382813-.03125-10.421875-2.164062-14.1875-6.011718-1.300781-1.328126-2.75-2.417969-4.285156-3.308594l-125.664063-128.238282c-.09375-.09375-.183594-.183593-.277344-.273437-11.3125-11.109375-26.429687-17.164063-42.503906-17.03125-15.683594.121094-30.402344 6.128906-41.453125 16.917969-.046875.046875-.09375.09375-.140625.140625l-134.273437 133.730469c-3.082031 1.910156-6.628907 2.964843-10.34375 2.996093-5.359375.054688-10.382813-2.003906-14.191407-5.753906l-9.445312-9.300781c-3.855469-3.804688-5.976562-8.878906-5.964844-14.296875.011719-5.414063 2.15625-10.480469 6.0625-14.296875l196.246094-192.457032c7.691406-7.511718 20.171875-7.527343 27.886719-.058593l58.53125 59.410156c7.753906 7.871094 20.417969 7.964844 28.289062.210937 7.867188-7.753906 7.960938-20.417968.210938-28.285156l-58.671875-59.550781c-.078125-.082031-.160156-.160156-.238282-.238281-11.269531-11.058594-26.167968-17.1640628-41.957031-17.183594-.027343 0-.054687 0-.082031 0-15.757812 0-30.640625 6.0625-41.949219 17.101562l-196.246093 192.457032c-11.628907 11.351562-18.0507818 26.554687-18.085938 42.804687-.0351562 16.246094 6.320312 31.476563 17.894531 42.878907l9.445313 9.304687c4.652344 4.582031 9.921875 8.296875 15.613281 11.105469l-24.949219 24.847656c-11.574218 11.34375-17.9687498 26.511719-18.003906 42.722656-.0351562 16.25 6.320312 31.476563 17.894531 42.878906l9.445313 9.304688c11.417968 11.25 26.515625 17.386719 42.566406 17.253906 16.03125-.121094 31.050781-6.476562 42.339844-17.9375l143.105468-146.121094 144.496094 149.992188c.039063.039062.074219.078125.109375.113281 11.296875 11.542969 26.414063 17.945313 42.5625 18.035157h.332031c16.023438 0 31.082032-6.234376 42.421876-17.574219l9.152343-9.152344c11.40625-11.410156 17.648438-26.578125 17.574219-42.710937-.074219-16.066407-6.398438-31.109376-17.816406-42.394532zm-1.308593 84.101562-9.152344 9.152344c-3.804687 3.808594-8.832031 5.886719-14.25 5.859375-5.359375-.03125-10.378906-2.144531-14.136719-5.960937l-158.722656-164.757813c-3.75-3.894531-8.914062-6.101562-14.320312-6.125-.027344 0-.054688 0-.082032 0-5.378906 0-10.527344 2.164063-14.292968 6.007813l-157.476563 160.789062c-3.75 3.808594-8.757813 5.929688-14.097656 5.96875-5.328125.039063-10.382813-2.003906-14.191407-5.753906l-9.445312-9.300781c-3.855469-3.800781-5.976562-8.878907-5.964844-14.296875.011719-5.414063 2.15625-10.480469 6.03125-14.265625.046875-.046875.09375-.09375.140625-.140625l59.488281-59.25c2.296876-1.742188 4.484376-3.660156 6.542969-5.75 1.058594-1.078125 1.957031-2.25 2.726563-3.480469l127.4375-126.925781c3.609375-3.492188 8.492187-5.4375 13.757812-5.476563 5.378906-.050781 10.359375 1.894531 14.054688 5.460938l195.550781 199.554687c.089844.089844.179687.183594.273437.273438 3.835938 3.765625 5.964844 8.800781 5.988282 14.179687.023437 5.378907-2.054688 10.4375-5.859375 14.238281zm0 0" fill="url(#a)"/></svg>