<svg height="512" viewBox="0 0 64 64" width="512" xmlns="http://www.w3.org/2000/svg"><path d="m47 55v-8h8v-4h-8v-8h-4v8h-8v4h8v8z" fill="#9bc9ff"/><path d="m13 45h16a16 16 0 0 1 24-13.86v-16.14a2.006 2.006 0 0 0 -2-2h-38a4 4 0 0 0 -4 4v24a4 4 0 0 0 4 4z" fill="#9bc9ff"/><g fill="#57a4ff"><path d="m13 16a1 1 0 0 0 -1 1v4h2v-3h3v-2z"/><path d="m12 23h2v2h-2z"/><path d="m55 42h-7v-7a1 1 0 0 0 -1-1h-4a1 1 0 0 0 -1 1v7h-7a1 1 0 0 0 -1 1v4a1 1 0 0 0 1 1h7v7a1 1 0 0 0 1 1h4a1 1 0 0 0 1-1v-7h7a1 1 0 0 0 1-1v-4a1 1 0 0 0 -1-1zm-1 4h-7a1 1 0 0 0 -1 1v7h-2v-7a1 1 0 0 0 -1-1h-7v-2h7a1 1 0 0 0 1-1v-7h2v7a1 1 0 0 0 1 1h7z"/><path d="m54 30.6v-15.6a3 3 0 0 0 -2-2.816v-3.184a3 3 0 0 0 -3-3h-28a1 1 0 0 1 -1-1 3 3 0 0 0 -3-3h-12a3 3 0 0 0 -3 3v38a3 3 0 0 0 3 3h23.051a16.989 16.989 0 1 0 25.949-15.4zm-50 12.4v-38a1 1 0 0 1 1-1h12a1 1 0 0 1 1 1 3 3 0 0 0 3 3h28a1 1 0 0 1 1 1v3h-37a5.006 5.006 0 0 0 -5 5v24a4.948 4.948 0 0 0 1.026 3h-4.026a1 1 0 0 1 -1-1zm6-2v-24a3 3 0 0 1 3-3h38a1 1 0 0 1 1 1v14.526a16.947 16.947 0 0 0 -23.949 14.474h-15.051a3 3 0 0 1 -3-3zm35 19a15 15 0 1 1 15-15 15.017 15.017 0 0 1 -15 15z"/></g></svg>